<svg xmlns="http://www.w3.org/2000/svg" xmlns:xlink="http://www.w3.org/1999/xlink" viewBox="0 0 52.52 37.31"><defs><style>.cls-1{isolation:isolate;}.cls-2{fill:url(#radial-gradient);}.cls-26,.cls-27,.cls-3{fill:#e0a326;}.cls-24,.cls-25,.cls-28,.cls-3{mix-blend-mode:screen;}.cls-25,.cls-3{opacity:0.45;}.cls-10,.cls-11,.cls-12,.cls-13,.cls-14,.cls-15,.cls-16,.cls-17,.cls-18,.cls-19,.cls-20,.cls-21,.cls-22,.cls-23,.cls-27,.cls-29,.cls-4,.cls-5,.cls-6,.cls-7,.cls-8,.cls-9{mix-blend-mode:multiply;}.cls-10,.cls-11,.cls-12,.cls-13,.cls-14,.cls-15,.cls-16,.cls-17,.cls-18,.cls-19,.cls-20,.cls-21,.cls-22,.cls-23,.cls-4,.cls-5,.cls-6,.cls-7,.cls-8,.cls-9{opacity:0.5;}.cls-4{fill:url(#radial-gradient-2);}.cls-5{fill:url(#radial-gradient-3);}.cls-6{fill:url(#radial-gradient-4);}.cls-7{fill:url(#radial-gradient-5);}.cls-8{fill:url(#radial-gradient-6);}.cls-9{fill:url(#radial-gradient-7);}.cls-10{fill:url(#radial-gradient-8);}.cls-11{fill:url(#radial-gradient-9);}.cls-12{fill:url(#radial-gradient-10);}.cls-13{fill:url(#radial-gradient-11);}.cls-14{fill:url(#radial-gradient-12);}.cls-15{fill:url(#radial-gradient-13);}.cls-16{fill:url(#radial-gradient-14);}.cls-17{fill:url(#radial-gradient-15);}.cls-18{fill:url(#radial-gradient-16);}.cls-19{fill:url(#radial-gradient-17);}.cls-20{fill:url(#radial-gradient-18);}.cls-21{fill:url(#radial-gradient-19);}.cls-22{fill:url(#radial-gradient-20);}.cls-23{fill:url(#radial-gradient-21);}.cls-24{fill:url(#radial-gradient-22);}.cls-27,.cls-29{opacity:0.54;}</style><radialGradient id="radial-gradient" cx="171.28" cy="-37.91" r="33.56" gradientTransform="translate(-48.55 -144.02) rotate(73.79)" gradientUnits="userSpaceOnUse"><stop offset="0" stop-color="#f20074"/><stop offset="0.14" stop-color="#ed0376"/><stop offset="0.31" stop-color="#df0b7d"/><stop offset="0.49" stop-color="#c71887"/><stop offset="0.67" stop-color="#a62a96"/><stop offset="0.87" stop-color="#7b42a9"/><stop offset="0.9" stop-color="#7446ac"/></radialGradient><radialGradient id="radial-gradient-2" cx="171.29" cy="-35.07" r="31.42" gradientTransform="matrix(1, -0.06, 0.06, 1, -148.58, 55.68)" xlink:href="#radial-gradient"/><radialGradient id="radial-gradient-3" cx="172.19" cy="-30.52" r="26.4" gradientTransform="matrix(1, -0.06, 0.06, 1, -148.58, 55.68)" xlink:href="#radial-gradient"/><radialGradient id="radial-gradient-4" cx="173.27" cy="-52.78" r="20.7" gradientTransform="matrix(1, -0.06, 0.06, 1, -148.58, 55.68)" xlink:href="#radial-gradient"/><radialGradient id="radial-gradient-5" cx="174.62" cy="-39.14" r="6.96" gradientTransform="matrix(1, -0.06, 0.06, 1, -148.58, 55.68)" xlink:href="#radial-gradient"/><radialGradient id="radial-gradient-6" cx="177.6" cy="-48.64" r="14.42" gradientTransform="matrix(1, -0.06, 0.06, 1, -148.58, 55.68)" xlink:href="#radial-gradient"/><radialGradient id="radial-gradient-7" cx="205.89" cy="-58.81" r="9.4" gradientTransform="matrix(1, 0.01, -0.02, 1.62, -182.63, 108.93)" xlink:href="#radial-gradient"/><radialGradient id="radial-gradient-8" cx="174.28" cy="-24.44" r="9.88" gradientTransform="matrix(1, -0.06, 0.06, 1, -148.58, 55.68)" xlink:href="#radial-gradient"/><radialGradient id="radial-gradient-9" cx="175.48" cy="-181.95" r="20.17" gradientTransform="translate(140.18 251.86) rotate(-71.58)" xlink:href="#radial-gradient"/><radialGradient id="radial-gradient-10" cx="189.14" cy="-40.94" r="9.9" gradientTransform="matrix(1, -0.06, 0.06, 1, -148.58, 55.68)" xlink:href="#radial-gradient"/><radialGradient id="radial-gradient-11" cx="186.64" cy="-34.97" r="6.85" gradientTransform="matrix(1, -0.06, 0.06, 1, -148.58, 55.68)" xlink:href="#radial-gradient"/><radialGradient id="radial-gradient-12" cx="185.13" cy="-22.52" r="5.8" gradientTransform="matrix(1, -0.06, 0.06, 1, -148.58, 55.68)" xlink:href="#radial-gradient"/><radialGradient id="radial-gradient-13" cx="186.34" cy="-42.61" r="18.98" gradientTransform="matrix(1, -0.06, 0.06, 1, -148.58, 55.68)" xlink:href="#radial-gradient"/><radialGradient id="radial-gradient-14" cx="166.33" cy="-164.61" r="18.07" gradientTransform="translate(39.25 244.81) rotate(-54.04)" xlink:href="#radial-gradient"/><radialGradient id="radial-gradient-15" cx="163.15" cy="-37.26" r="6.71" gradientTransform="matrix(1, -0.06, 0.06, 1, -148.58, 55.68)" xlink:href="#radial-gradient"/><radialGradient id="radial-gradient-16" cx="164.69" cy="-51.73" r="16.83" gradientTransform="matrix(1, -0.06, 0.06, 1, -148.58, 55.68)" xlink:href="#radial-gradient"/><radialGradient id="radial-gradient-17" cx="172.14" cy="-43.76" r="4.91" gradientTransform="matrix(1, -0.06, 0.06, 1, -148.58, 55.68)" xlink:href="#radial-gradient"/><radialGradient id="radial-gradient-18" cx="241.72" cy="16.57" r="16.09" gradientTransform="matrix(0.77, 0.64, -0.67, 0.81, -155.83, -154.25)" xlink:href="#radial-gradient"/><radialGradient id="radial-gradient-19" cx="164.45" cy="-29.27" r="6.57" gradientTransform="matrix(1, -0.06, 0.06, 1, -148.58, 55.68)" xlink:href="#radial-gradient"/><radialGradient id="radial-gradient-20" cx="170.65" cy="-19.82" r="5.53" gradientTransform="matrix(1, -0.06, 0.06, 1, -148.58, 55.68)" xlink:href="#radial-gradient"/><radialGradient id="radial-gradient-21" cx="164.11" cy="-29.67" r="12.17" gradientTransform="matrix(1, -0.06, 0.06, 1, -148.58, 55.68)" xlink:href="#radial-gradient"/><radialGradient id="radial-gradient-22" cx="177.38" cy="-27.55" r="18.82" gradientTransform="translate(-117.47 -87.73) rotate(45.06)" gradientUnits="userSpaceOnUse"><stop offset="0.05" stop-color="#e0a326"/><stop offset="0.41" stop-color="#e0a227" stop-opacity="0.99"/><stop offset="0.55" stop-color="#df9e2b" stop-opacity="0.96"/><stop offset="0.64" stop-color="#de9833" stop-opacity="0.91"/><stop offset="0.71" stop-color="#dd8f3e" stop-opacity="0.83"/><stop offset="0.78" stop-color="#db844c" stop-opacity="0.73"/><stop offset="0.84" stop-color="#d8755d" stop-opacity="0.61"/><stop offset="0.89" stop-color="#d56471" stop-opacity="0.47"/><stop offset="0.93" stop-color="#d25089" stop-opacity="0.3"/><stop offset="0.98" stop-color="#ce3ba3" stop-opacity="0.12"/><stop offset="1" stop-color="#cc2db4" stop-opacity="0"/></radialGradient></defs><g class="cls-1"><g id="레이어_2" data-name="레이어 2"><g id="Capa_1" data-name="Capa 1"><circle class="cls-2" cx="26.86" cy="18.66" r="15.26" transform="translate(2.66 40.65) rotate(-77.05)"/><path class="cls-3" d="M12.38,20.26A15.26,15.26,0,0,1,37.86,8.08,15.26,15.26,0,1,0,16.62,30,15.18,15.18,0,0,1,12.38,20.26Z"/><path class="cls-3" d="M18.34,27.4a13.53,13.53,0,0,1,22.34-11,13.53,13.53,0,1,0-22,13.22A13.25,13.25,0,0,1,18.34,27.4Z"/><path class="cls-4" d="M35.64,6.18a13.92,13.92,0,0,1-24,13.49,15.26,15.26,0,1,0,24-13.49Z"/><path class="cls-5" d="M39.24,11.42A14.39,14.39,0,0,1,13.58,24.28a14.39,14.39,0,0,0,27.65-6.35A14.24,14.24,0,0,0,39.24,11.42Z"/><path class="cls-6" d="M36.42,11c-.55,1.66-2.86,2.38-5.16,1.62s-3.73-2.73-3.18-4.38,2.86-2.38,5.16-1.62S37,9.35,36.42,11Zm-9.49.39a1.8,1.8,0,0,0-2.37.74c-.25.76.4,1.67,1.46,2a1.8,1.8,0,0,0,2.37-.75C28.65,12.64,28,11.74,26.93,11.39Z"/><path class="cls-7" d="M26.93,11.39a1.8,1.8,0,0,0-2.37.74,1.06,1.06,0,0,0,0,.35,2,2,0,0,1,2.15-.37,2,2,0,0,1,1.51,1.66.94.94,0,0,0,.22-.37C28.65,12.64,28,11.74,26.93,11.39Z"/><path class="cls-8" d="M33.24,6.62c-2.3-.76-4.61,0-5.16,1.62a2.45,2.45,0,0,0-.08.29c.78-1.35,2.88-1.89,5-1.19s3.56,2.5,3.25,4.09a2.39,2.39,0,0,0,.2-.43C37,9.35,35.55,7.38,33.24,6.62Z"/><path class="cls-9" d="M32.4,28c0,1.36-1.57,2.45-3.47,2.42s-3.42-1.15-3.4-2.52S27.1,25.43,29,25.45,32.42,26.61,32.4,28Z"/><path class="cls-10" d="M32.06,26.88a1.27,1.27,0,0,1,0,.2c0,1.37-1.57,2.45-3.47,2.43a3.72,3.72,0,0,1-3.06-1.43c.13,1.27,1.59,2.29,3.39,2.31S32.38,29.33,32.4,28A2,2,0,0,0,32.06,26.88Z"/><path class="cls-11" d="M40,17.09c1,.34,1.23,2.49.46,4.79s-2.21,3.89-3.24,3.55S36,23,36.72,20.64,38.94,16.75,40,17.09ZM36.41,27.45c-.63.62-.91,1.35-.64,1.63s1,0,1.64-.62.92-1.35.64-1.63S37,26.83,36.41,27.45ZM38.32,14.2c.3,1.19,1,2.05,1.49,1.91s.72-1.2.42-2.39-1-2-1.49-1.91S38,13,38.32,14.2Zm-1.68,2.38c-.33.82-.29,1.6.07,1.75s.93-.41,1.25-1.23.3-1.6-.07-1.75S37,15.76,36.64,16.58Z"/><path class="cls-12" d="M39.61,13.63c.27,1.1.13,2.08-.31,2.33a.61.61,0,0,0,.51.15c.53-.13.72-1.2.42-2.39s-1-2-1.49-1.91a.6.6,0,0,0-.11.06A3.18,3.18,0,0,1,39.61,13.63Z"/><path class="cls-13" d="M37.34,17a2.34,2.34,0,0,1-.82,1.14.39.39,0,0,0,.19.19c.37.14.93-.41,1.25-1.23s.3-1.6-.07-1.75a.47.47,0,0,0-.43.09A2.09,2.09,0,0,1,37.34,17Z"/><path class="cls-14" d="M37.46,26.78c.22.3-.07,1-.67,1.59a2.84,2.84,0,0,1-1,.67s0,0,0,0c.28.28,1,0,1.64-.62s.92-1.35.64-1.63A.59.59,0,0,0,37.46,26.78Z"/><path class="cls-15" d="M40,17.09a.93.93,0,0,0-.47,0c.89.49,1,2.53.31,4.71-.66,2-1.81,3.41-2.77,3.58l.15.07c1,.34,2.48-1.25,3.24-3.55S41,17.43,40,17.09Z"/><path class="cls-16" d="M20.59,7c.87.63.42,2.74-1,4.7s-3.29,3-4.16,2.41-.43-2.74,1-4.7S19.71,6.35,20.59,7ZM22.7,5.56c-.79.39-1.29,1-1.12,1.34s1,.32,1.75-.07,1.3-1,1.12-1.35S23.5,5.16,22.7,5.56Zm-9.45,9.81c-.39.79-.42,1.57-.07,1.75s1-.34,1.34-1.13.42-1.58.07-1.75S13.63,14.57,13.25,15.37Z"/><path class="cls-17" d="M13.65,16c.33-.69.83-1.15,1.18-1.16,0-.29-.07-.52-.24-.6-.35-.17-1,.33-1.34,1.13s-.42,1.57-.07,1.75a.41.41,0,0,0,.16,0A2.62,2.62,0,0,1,13.65,16Z"/><path class="cls-18" d="M16.83,10C18.24,8.07,20.1,7,21,7.6A1,1,0,0,0,20.59,7c-.88-.63-2.74.44-4.16,2.41s-1.88,4.07-1,4.7h0C15.21,13.16,15.72,11.55,16.83,10Z"/><path class="cls-19" d="M23.1,6.19a2.58,2.58,0,0,1,1.32-.31.44.44,0,0,0,0-.4c-.17-.35-.95-.32-1.75.08s-1.29,1-1.12,1.34a.51.51,0,0,0,.44.24A2.35,2.35,0,0,1,23.1,6.19Z"/><path class="cls-20" d="M20.26,29.91c-.54.65-2.13.23-3.54-.94s-2.1-2.66-1.55-3.31,2.13-.24,3.54.93S20.81,29.25,20.26,29.91Zm3,.35c-.81-.42-1.63-.46-1.83-.09s.3,1,1.11,1.45,1.62.47,1.82.09S24.06,30.69,23.26,30.26Zm-6.8-7.47c-.61-.69-1.36-1-1.68-.73s-.08,1.07.52,1.75,1.36,1,1.68.72S17.06,23.47,16.46,22.79Z"/><path class="cls-21" d="M17,24.53a.49.49,0,0,0,.13-.41,2,2,0,0,1-1.42-.81A2.38,2.38,0,0,1,15,22a.42.42,0,0,0-.25.09c-.32.28-.08,1.07.52,1.75S16.66,24.82,17,24.53Z"/><path class="cls-22" d="M22.92,31.12a2.06,2.06,0,0,1-1.13-1.18.52.52,0,0,0-.36.23c-.19.38.3,1,1.11,1.45s1.62.47,1.82.09a.41.41,0,0,0,0-.27A2.38,2.38,0,0,1,22.92,31.12Z"/><path class="cls-23" d="M17.11,28.47c-1.21-1-1.89-2.25-1.71-3a.71.71,0,0,0-.23.19c-.55.65.15,2.13,1.55,3.31s3,1.59,3.54.94a.84.84,0,0,0,.16-.33C19.74,30,18.35,29.5,17.11,28.47Z"/><circle class="cls-24" cx="26.86" cy="18.66" r="18.65" transform="translate(-4.94 26.31) rotate(-48.31)"/><g class="cls-25"><g class="cls-25"><path class="cls-26" d="M20.7,10.26c.84.65.57,2.38-.59,3.86s-2.78,2.15-3.61,1.5-.57-2.38.59-3.86S19.87,9.61,20.7,10.26Z"/></g><g class="cls-25"><path class="cls-26" d="M24.77,7.3c.32.53-.19,1.42-1.13,2s-2,.6-2.3.07.19-1.43,1.13-2S24.45,6.76,24.77,7.3Z"/></g></g><path class="cls-26" d="M52.24,3.38C50.78.93,44,2.11,35.16,5.89a10.13,10.13,0,0,1,1.47,1.16C42.26,5,46.44,4.54,47.45,6.24c1.72,2.89-6.36,10.89-18.06,17.87S6.8,34.4,5.08,31.51c-1.1-1.84,1.76-5.73,7-10.11a6.79,6.79,0,0,1-.37-1.71C3.52,26-1.24,31.8.28,34.36c2.12,3.55,15.46-.51,29.81-9.07S54.36,6.93,52.24,3.38Z"/><path class="cls-27" d="M37.74,5.39a1.23,1.23,0,0,1,0-.54c-.83.32-1.69.67-2.56,1a10.13,10.13,0,0,1,1.47,1.16C42.26,5,46.44,4.54,47.45,6.24c1.72,2.89-6.36,10.89-18.06,17.87S6.8,34.4,5.08,31.51c-1.1-1.84,1.76-5.73,7-10.11a6.79,6.79,0,0,1-.37-1.71,50.16,50.16,0,0,0-9.91,9.49c2.39-2.48,6.53-6.66,6.71-5.88.24,1.08-9.39,7.59-2.84,9.79s22.68-7.71,28.88-11.64,13.61-10.69,15-15.17S38.31,7.38,37.74,5.39Z"/><g class="cls-28"><g class="cls-29"><path class="cls-26" d="M5.65,33.87c0,.07-.29.07-.68.14a11.43,11.43,0,0,1-1.52.22,2.45,2.45,0,0,1-1.68-.55,1.66,1.66,0,0,1-.39-.55,1.31,1.31,0,0,1-.09-.24s0-.09,0-.25A2.4,2.4,0,0,1,1.3,32,5.24,5.24,0,0,1,2,30.53c.57-1,1.29-1.82,1.4-1.74a11.31,11.31,0,0,1-.78,2.05,4.92,4.92,0,0,0-.39,1.32,1.11,1.11,0,0,0,0,.49.76.76,0,0,0,.18.4,1.7,1.7,0,0,0,1.07.49c.49.07,1.06,0,1.48.09S5.66,33.81,5.65,33.87Z"/></g><g class="cls-29"><path class="cls-26" d="M48.55,10.65c-.1-.09,1-1.52,1.81-3.07a7.26,7.26,0,0,0,.9-2.13,2.1,2.1,0,0,0,0-.66,1.17,1.17,0,0,0-.05-.24,1.13,1.13,0,0,0-.06-.23,1.37,1.37,0,0,0-.31-.51A1.76,1.76,0,0,0,50,3.4a6.62,6.62,0,0,0-1.23-.18,9.06,9.06,0,0,0-2.36.19c-.65.14-1.07.29-1.1.22s.35-.32,1-.58a7.68,7.68,0,0,1,2.48-.52,7.16,7.16,0,0,1,1.39.08,2.57,2.57,0,0,1,1.24.53A2.21,2.21,0,0,1,52,4a2,2,0,0,1,.13.36,2.88,2.88,0,0,1,0,.36,3.15,3.15,0,0,1-.09.95,7.23,7.23,0,0,1-1.19,2.3A10.44,10.44,0,0,1,48.55,10.65Z"/></g></g></g></g></g></svg>