<svg xmlns="http://www.w3.org/2000/svg" xmlns:xlink="http://www.w3.org/1999/xlink" viewBox="0 0 137.87 137.87"><defs><style>.cls-1{isolation:isolate;}.cls-10,.cls-11,.cls-12,.cls-2,.cls-4,.cls-5,.cls-6,.cls-7,.cls-8{mix-blend-mode:screen;}.cls-2{fill:url(#radial-gradient);}.cls-3,.cls-4{fill:url(#radial-gradient-2);}.cls-5{fill:url(#radial-gradient-4);}.cls-6{fill:url(#radial-gradient-5);}.cls-7{fill:url(#radial-gradient-6);}.cls-8{fill:url(#radial-gradient-7);}.cls-9{mix-blend-mode:multiply;opacity:0.25;fill:url(#radial-gradient-8);}.cls-10{opacity:0.34;fill:url(#radial-gradient-9);}.cls-11{fill:#e0a326;opacity:0.45;}.cls-12{fill:url(#radial-gradient-10);}</style><radialGradient id="radial-gradient" cx="70.25" cy="69.9" r="67.58" gradientUnits="userSpaceOnUse"><stop offset="0" stop-color="#f20074"/><stop offset="0.38" stop-color="#f10174" stop-opacity="0.99"/><stop offset="0.51" stop-color="#ed0376" stop-opacity="0.96"/><stop offset="0.61" stop-color="#e70679" stop-opacity="0.92"/><stop offset="0.69" stop-color="#df0b7d" stop-opacity="0.85"/><stop offset="0.75" stop-color="#d31182" stop-opacity="0.75"/><stop offset="0.81" stop-color="#c51988" stop-opacity="0.64"/><stop offset="0.87" stop-color="#b42290" stop-opacity="0.51"/><stop offset="0.92" stop-color="#a02d98" stop-opacity="0.35"/><stop offset="0.96" stop-color="#8b39a2" stop-opacity="0.18"/><stop offset="1" stop-color="#7446ac" stop-opacity="0"/></radialGradient><radialGradient id="radial-gradient-2" cx="59.8" cy="12.21" r="172.84" gradientUnits="userSpaceOnUse"><stop offset="0" stop-color="#4a289c"/><stop offset="0.96" stop-color="#00092b"/></radialGradient><radialGradient id="radial-gradient-4" cx="45.4" cy="28.52" r="90.88" gradientUnits="userSpaceOnUse"><stop offset="0" stop-color="#f20074"/><stop offset="0.14" stop-color="#ed0376"/><stop offset="0.31" stop-color="#df0b7d"/><stop offset="0.49" stop-color="#c71887"/><stop offset="0.67" stop-color="#a62a96"/><stop offset="0.87" stop-color="#7b42a9"/><stop offset="0.9" stop-color="#7446ac"/></radialGradient><radialGradient id="radial-gradient-5" cx="45.4" cy="28.52" r="90.95" xlink:href="#radial-gradient-4"/><radialGradient id="radial-gradient-6" cx="45.4" cy="28.52" r="90.88" xlink:href="#radial-gradient-4"/><radialGradient id="radial-gradient-7" cx="45.4" cy="28.52" r="90.88" xlink:href="#radial-gradient-4"/><radialGradient id="radial-gradient-8" cx="60.81" cy="26.28" r="156.77" xlink:href="#radial-gradient-2"/><radialGradient id="radial-gradient-9" cx="62.27" cy="45.76" r="128.5" xlink:href="#radial-gradient-4"/><radialGradient id="radial-gradient-10" cx="56.4" cy="19.37" r="110.64" xlink:href="#radial-gradient-2"/></defs><g class="cls-1"><g id="레이어_2" data-name="레이어 2"><g id="Capa_1" data-name="Capa 1"><circle class="cls-2" cx="68.94" cy="68.94" r="68.94"/><circle class="cls-3" cx="68.94" cy="68.94" r="58.94"/><circle class="cls-4" cx="68.94" cy="68.94" r="58.94"/><path class="cls-5" d="M93.88,91.58a4.29,4.29,0,0,0,.81-2.64c-.24-1.82-2.42-2.66-4.25-2.68-4.35-.06-8.34,2.32-11.81,4.93s-6.81,5.59-10.9,7.07-9.28,1-12-2.43C53,92.23,53.92,87,52,82.81a3.16,3.16,0,0,0-1.1-1.44c-1.26-.79-2.87.1-4.1.94-7,4.78-14.79,8.75-23.2,9.69a30.68,30.68,0,0,1-9.07-.35A59.13,59.13,0,0,0,37,118.47a10,10,0,0,1,.66-2c3.13-6.67,12-7.78,19.31-8.34,7-.52,14.06-1.39,20.63-3.87S90.28,97.6,93.88,91.58Z"/><path class="cls-6" d="M127.44,76c-4,.1-7.88.39-11.15,2.5-5.44,3.52-7,10.94-6.12,17.37.22,1.68.56,3.47-.15,5a7.19,7.19,0,0,1-2,2.36C100.55,109.68,91,113,82.5,118c-3.73,2.15-7.67,5.4-7.69,9.61A59,59,0,0,0,127.44,76Z"/><path class="cls-7" d="M10,68.94c0,.34,0,.68,0,1a11.37,11.37,0,0,0,3.17,1.69c2.59.89,5.58.95,7.69,2.7,1.15,1,1.9,2.32,3,3.29,2.84,2.41,7.37,1.63,10.27-.71s4.57-5.83,6.2-9.18,3.44-6.8,6.49-8.94A11.57,11.57,0,0,1,55.68,57c2.67.54,5.24,2,7.94,1.69,3.53-.46,6-4.11,6.1-7.67s-1.57-6.92-3.61-9.83a19.42,19.42,0,0,1-2.7-4.49c-1.59-4.46,1.08-9.33,4.36-12.75s7.35-6.22,9.59-10.39a8.26,8.26,0,0,0,1-2.79A58.95,58.95,0,0,0,10,68.94Z"/><path class="cls-8" d="M93.25,24.69c1.06,3.54,3.27,6.61,4.86,9.94s2.53,7.34,1,10.68c-1.92,4.1-6.75,5.72-10.86,7.6A43.29,43.29,0,0,0,78,59.47C74.56,62.4,71.4,66.54,72.16,71c.8,4.64,5.57,7.52,10.12,8.72,2.87.76,6,1.09,8.71-.2,5.07-2.43,6.48-9.56,11.54-12,4.06-2,8.83-.18,13.33.18a22,22,0,0,0,11.88-2.55A59,59,0,0,0,93.35,15.29,16.35,16.35,0,0,0,93.25,24.69Z"/><path class="cls-9" d="M107.45,24.34A59,59,0,0,1,50.26,97.56,58.72,58.72,0,0,1,11.75,83.22a58.94,58.94,0,1,0,95.7-58.88Z"/><path class="cls-10" d="M117.71,44.26A54.84,54.84,0,0,1,17.23,87.55,54.84,54.84,0,1,0,117.71,44.26Z"/><path class="cls-11" d="M13.66,74.17A58.93,58.93,0,0,1,119,37.89,58.93,58.93,0,1,0,22.5,105.21,58.65,58.65,0,0,1,13.66,74.17Z"/><path class="cls-12" d="M18.7,80.8c-1.76-7,1-17.59,2.41-22.68A56.08,56.08,0,0,1,41.34,27.87c26.22-19.55,56.41-5.29,64.43,3.45s-1.41,18.17-15.9,17.94-28.75-.46-37,6.9-7.59,26-18.63,29.9c-3.66,1.3-8.94,2.54-12.38,0A9,9,0,0,1,18.7,80.8Z"/><path class="cls-11" d="M44.88,35.62c3.19,2.81,1.74,9.68-3.25,15.34S30,59,26.82,56.14s-1.73-9.68,3.25-15.35S41.69,32.81,44.88,35.62Z"/><path class="cls-11" d="M61.86,24.67c1.17,2.21-1.07,5.68-5,7.76s-8.06,2-9.22-.25,1.06-5.69,5-7.76S60.69,22.46,61.86,24.67Z"/></g></g></g></svg>