<svg xmlns="http://www.w3.org/2000/svg" xmlns:xlink="http://www.w3.org/1999/xlink" viewBox="0 0 207.82 209.06"><defs><style>.cls-1{fill:#ffb453;}.cls-2{fill:#ff8a53;}.cls-3{fill:#ff6e53;}.cls-4{fill:url(#linear-gradient);}.cls-5{opacity:0.2;}.cls-6{fill:#fff;}.cls-11,.cls-7{opacity:0.3;}.cls-8{fill:url(#linear-gradient-2);}.cls-9{opacity:0.1;}.cls-10{fill:#a6f6ff;}.cls-12{fill:url(#linear-gradient-3);}</style><linearGradient id="linear-gradient" x1="223.07" y1="-450.06" x2="223.07" y2="-530.13" gradientTransform="translate(-419.53 313.12) rotate(45)" gradientUnits="userSpaceOnUse"><stop offset="0" stop-color="#355aff"/><stop offset="1" stop-color="#ff5f6d"/></linearGradient><linearGradient id="linear-gradient-2" x1="187.33" y1="-636.02" x2="256.49" y2="-636.02" xlink:href="#linear-gradient"/><linearGradient id="linear-gradient-3" x1="195.22" y1="-578.29" x2="249.43" y2="-578.29" xlink:href="#linear-gradient"/></defs><g id="레이어_2" data-name="레이어 2"><g id="OBJECTS"><path class="cls-1" d="M66.78,181.29a39.59,39.59,0,0,0,6.16-20.11c.1-3.59-1.83-5.43-3.77-8.44a15.69,15.69,0,0,0-8.12-6.38,15.65,15.65,0,0,0-6.37-8.11c-3-1.95-4.86-3.88-8.45-3.78a39.59,39.59,0,0,0-20.11,6.16,7.22,7.22,0,0,1,4.82.46,65.85,65.85,0,0,0-13.84,14,21.41,21.41,0,0,1,6.81-3.09A59.13,59.13,0,0,0,12.79,172l6-4.94A43.62,43.62,0,0,0,14,193.14l-.24.24.28,0,0,.27.24-.24a43.55,43.55,0,0,0,26.12-4.84c-1.64,2-3.29,4-4.93,6A59.32,59.32,0,0,0,55.37,183.5a21.66,21.66,0,0,1-3.1,6.81,65.62,65.62,0,0,0,14-13.84A7.16,7.16,0,0,1,66.78,181.29Z"/><path class="cls-2" d="M65.54,171.58A28.82,28.82,0,0,0,70,156.89c.07-2.62-1.33-4-2.76-6.17a11.37,11.37,0,0,0-5.92-4.66,11.46,11.46,0,0,0-4.66-5.93c-2.21-1.42-3.55-2.83-6.17-2.76a28.92,28.92,0,0,0-14.7,4.5,5.22,5.22,0,0,1,3.52.34,48,48,0,0,0-10.11,10.26,16,16,0,0,1,5-2.26,43.68,43.68,0,0,0-8.13,14.55l4.4-3.6a31.84,31.84,0,0,0-3.54,19.08l-.18.18.21,0c0,.07,0,.14,0,.21l.18-.18a32,32,0,0,0,19.09-3.53l-3.61,4.39A43.41,43.41,0,0,0,57.2,173.2a16,16,0,0,1-2.26,5,48,48,0,0,0,10.27-10.11A5.28,5.28,0,0,1,65.54,171.58Z"/><path class="cls-3" d="M62.49,167.2a21.76,21.76,0,0,0,3.38-11c0-2-1-3-2.07-4.62a8.56,8.56,0,0,0-4.45-3.5,8.59,8.59,0,0,0-3.49-4.45c-1.66-1.06-2.66-2.12-4.63-2.07a21.76,21.76,0,0,0-11,3.38,4,4,0,0,1,2.64.25,36.22,36.22,0,0,0-7.59,7.7A12.08,12.08,0,0,1,39,151.18a32.5,32.5,0,0,0-6.09,10.91c1.1-.9,2.2-1.8,3.29-2.71a24,24,0,0,0-2.65,14.32l-.13.13.15,0c0,.05,0,.1,0,.15l.13-.13A23.9,23.9,0,0,0,48,171.22l-2.71,3.29a32.4,32.4,0,0,0,10.91-6.09,12,12,0,0,1-1.69,3.73,36,36,0,0,0,7.7-7.59A3.94,3.94,0,0,1,62.49,167.2Z"/><polygon class="cls-4" points="138.52 198.16 136.63 121.73 85.26 123.8 87.32 72.43 10.9 70.53 5.04 97.84 81.68 127.38 111.22 204.01 138.52 198.16"/><path class="cls-5" d="M87.32,72.43,64.1,71.85a251,251,0,0,0-26.52,38.53l44.1,17,16.38,42.51a252.23,252.23,0,0,0,39.09-27.16l-.52-21L85.26,123.8Z"/><path class="cls-6" d="M165.66,42.15c-24.66-3.52-60.15,12.09-90,41.94C60.44,99.32,48.93,116,41.76,132a118.56,118.56,0,0,0,34.08,34.08c16-7.17,32.66-18.68,47.88-33.9C153.57,102.31,169.18,66.82,165.66,42.15Z"/><path class="cls-7" d="M165.66,42.15c-24.66-3.52-60.15,12.09-90,41.94C60.44,99.32,48.93,116,41.76,132a118.56,118.56,0,0,0,34.08,34.08c16-7.17,32.66-18.68,47.88-33.9C153.57,102.31,169.18,66.82,165.66,42.15Z"/><path class="cls-7" d="M47.59,120.52a52.8,52.8,0,0,0,6.94,16.22c4.46,7.1,10.13,13.35,15.78,19.55a25.4,25.4,0,0,1-4,2.81,117.19,117.19,0,0,0,9.54,7,144.05,144.05,0,0,0,20.38-11.32,26.18,26.18,0,0,0-1.14-7.81c-2-6.68-5.93-12.6-10-18.25-3.89-5.38-8.16-10.8-14.08-13.79-5.63-2.85-12.17-2.71-18.61-2.21Q49.82,116.6,47.59,120.52Z"/><path class="cls-6" d="M207.18.64C175-3.95,128.69,16.42,89.75,55.36,69.89,75.22,54.87,97,45.52,117.83A154.41,154.41,0,0,0,90,162.3c20.84-9.36,42.62-24.37,62.48-44.23C191.4,79.12,211.77,32.82,207.18.64Z"/><path class="cls-8" d="M174.85,35.11A78,78,0,0,1,193,63.36C204.61,40.55,209.72,18.44,207.18.64,189-2,166.19,3.45,142.8,15.71A78,78,0,0,1,174.85,35.11Z"/><path class="cls-6" d="M10,93.64C7.71,105.09,5.65,105,3.17,104.49S-1.26,103.33,1,91.87,8.85,62.53,11.33,63,12.22,82.18,10,93.64Z"/><path class="cls-6" d="M115.42,199.1c-11.45,2.25-11.34,4.31-10.85,6.79s1.16,4.43,12.61,2.18,29.35-7.86,28.87-10.34S126.87,196.84,115.42,199.1Z"/><path class="cls-9" d="M207.36,2.18c-12.12,32.38-37.88,70.87-73.61,106.61a388,388,0,0,1-54.62,45.69q5.3,4.17,10.85,7.82c20.84-9.36,42.62-24.37,62.48-44.23C190.79,79.74,211.11,34.29,207.36,2.18Z"/><circle class="cls-10" cx="146.59" cy="61.41" r="23.51"/><g class="cls-11"><path class="cls-6" d="M166.9,49.56H126.28a23.52,23.52,0,0,0-3.11,13.94H170A23.52,23.52,0,0,0,166.9,49.56Z"/><path class="cls-6" d="M165.78,75a23.24,23.24,0,0,0,3.88-9H123.52a23.39,23.39,0,0,0,3.88,9Z"/></g><path class="cls-9" d="M163.22,44.79a23.52,23.52,0,0,0-23.46-5.88,23.51,23.51,0,0,1,4,45.83,23.5,23.5,0,0,0,19.5-39.95Z"/><path class="cls-12" d="M127.43,80.58a27.1,27.1,0,1,1,38.33,0A27.13,27.13,0,0,1,127.43,80.58Zm33.25-33.25a19.92,19.92,0,1,0,0,28.17A19.95,19.95,0,0,0,160.68,47.33Z"/></g></g></svg>