<svg xmlns="http://www.w3.org/2000/svg" xmlns:xlink="http://www.w3.org/1999/xlink" viewBox="0 0 27.5 27.5"><defs><style>.cls-1{isolation:isolate;}.cls-2{fill:url(#radial-gradient);}.cls-3{fill:url(#radial-gradient-2);}.cls-10,.cls-11,.cls-12,.cls-13,.cls-4,.cls-5,.cls-6,.cls-7,.cls-9{mix-blend-mode:screen;}.cls-4{fill:url(#radial-gradient-3);}.cls-5{fill:url(#radial-gradient-4);}.cls-6{fill:url(#radial-gradient-5);}.cls-7{fill:url(#radial-gradient-6);}.cls-8{mix-blend-mode:multiply;opacity:0.25;fill:url(#radial-gradient-7);}.cls-9{opacity:0.34;fill:url(#radial-gradient-8);}.cls-10,.cls-12,.cls-13{opacity:0.45;}.cls-10{fill:url(#radial-gradient-9);}.cls-11{fill:url(#radial-gradient-10);}.cls-12{fill:url(#radial-gradient-11);}.cls-13{fill:url(#radial-gradient-12);}</style><radialGradient id="radial-gradient" cx="-267.76" cy="-220.45" r="13.65" gradientTransform="translate(-332.79 1.31) rotate(142.61)" gradientUnits="userSpaceOnUse"><stop offset="0" stop-color="#3f1f7d"/><stop offset="0.43" stop-color="#40217e" stop-opacity="0.99"/><stop offset="0.58" stop-color="#422983" stop-opacity="0.93"/><stop offset="0.7" stop-color="#45378c" stop-opacity="0.84"/><stop offset="0.78" stop-color="#4b4a98" stop-opacity="0.7"/><stop offset="0.86" stop-color="#5264a8" stop-opacity="0.52"/><stop offset="0.93" stop-color="#5a83bc" stop-opacity="0.31"/><stop offset="0.99" stop-color="#64a8d3" stop-opacity="0.06"/><stop offset="1" stop-color="#66b0d8" stop-opacity="0"/></radialGradient><radialGradient id="radial-gradient-2" cx="-569.25" cy="-603.79" r="31.31" gradientTransform="matrix(0.03, 1, -1, 0.03, -560.39, 600.93)" gradientUnits="userSpaceOnUse"><stop offset="0.06" stop-color="#66b0d8"/><stop offset="1" stop-color="#3f1f7d"/></radialGradient><radialGradient id="radial-gradient-3" cx="-271.03" cy="-230.94" r="71.77" gradientTransform="matrix(0.26, 0.97, -0.97, 0.26, -130.7, 329)" gradientUnits="userSpaceOnUse"><stop offset="0.05" stop-color="#e0a326"/><stop offset="1" stop-color="#cc2db4"/></radialGradient><radialGradient id="radial-gradient-4" cx="-271.03" cy="-230.94" r="71.77" xlink:href="#radial-gradient-3"/><radialGradient id="radial-gradient-5" cx="-271.03" cy="-230.94" r="71.77" xlink:href="#radial-gradient-3"/><radialGradient id="radial-gradient-6" cx="-271.03" cy="-230.94" r="71.77" xlink:href="#radial-gradient-3"/><radialGradient id="radial-gradient-7" cx="-568.99" cy="-601.2" r="28.4" gradientTransform="matrix(0.93, 0.36, -0.36, 0.93, 327.02, 772.88)" xlink:href="#radial-gradient-2"/><radialGradient id="radial-gradient-8" cx="-568.34" cy="-597.7" r="23.28" gradientTransform="matrix(0.93, 0.36, -0.36, 0.93, 327.02, 772.88)" xlink:href="#radial-gradient-2"/><radialGradient id="radial-gradient-9" cx="402.93" cy="-158" r="9.27" gradientTransform="matrix(0.37, -0.93, 0.93, 0.37, 13.31, 444.36)" xlink:href="#radial-gradient-2"/><radialGradient id="radial-gradient-10" cx="-569.87" cy="-602.49" r="20.04" gradientTransform="matrix(0.93, 0.36, -0.36, 0.93, 327.02, 772.88)" xlink:href="#radial-gradient-2"/><radialGradient id="radial-gradient-11" cx="405.05" cy="-163.2" r="2.01" gradientTransform="matrix(0.37, -0.93, 0.93, 0.37, 13.31, 444.36)" xlink:href="#radial-gradient-2"/><radialGradient id="radial-gradient-12" cx="408.23" cy="-159.79" r="1.18" gradientTransform="matrix(0.37, -0.93, 0.93, 0.37, 13.31, 444.36)" xlink:href="#radial-gradient-2"/></defs><g class="cls-1"><g id="레이어_2" data-name="레이어 2"><g id="Capa_1" data-name="Capa 1"><circle class="cls-2" cx="13.75" cy="13.75" r="13.75" transform="translate(-4.22 21.17) rotate(-67.44)"/><circle class="cls-3" cx="13.75" cy="13.75" r="10.68" transform="translate(-4.31 20.97) rotate(-66.78)"/><path class="cls-4" d="M16.47,19.21a.7.7,0,0,0,.31-.39c.08-.32-.23-.61-.54-.73a3.56,3.56,0,0,0-2.32.06,8,8,0,0,1-2.3.47,1.94,1.94,0,0,1-1.86-1.2C9.53,16.63,10,15.8,10,15a.52.52,0,0,0-.09-.32c-.16-.21-.49-.17-.75-.11a9.39,9.39,0,0,1-4.56.11A5.55,5.55,0,0,1,3.08,14a10.66,10.66,0,0,0,2,6,1.56,1.56,0,0,1,.23-.28c1-.92,2.53-.53,3.81-.14a13.36,13.36,0,0,0,3.74.7A5.68,5.68,0,0,0,16.47,19.21Z"/><path class="cls-5" d="M23.16,18.8a3.68,3.68,0,0,0-2.05-.31A3.18,3.18,0,0,0,18.94,21a1.73,1.73,0,0,1-.36.84,1.37,1.37,0,0,1-.49.27,28.88,28.88,0,0,1-5.28.8A2.35,2.35,0,0,0,10.88,24,10.69,10.69,0,0,0,23.16,18.8Z"/><path class="cls-6" d="M3.8,9.87l-.06.18a2.47,2.47,0,0,0,.42.49c.38.32.88.53,1.12,1,.14.24.17.52.3.76a1.52,1.52,0,0,0,1.78.56A4.69,4.69,0,0,0,9,11.67a4.15,4.15,0,0,1,1.68-1.08,2.11,2.11,0,0,1,1.61.27c.42.27.75.69,1.23.81a1.42,1.42,0,0,0,1.53-.89,3,3,0,0,0,0-1.9,3.78,3.78,0,0,1-.16-.94,2.4,2.4,0,0,1,1.58-1.86A9.81,9.81,0,0,0,18.82,5a1.65,1.65,0,0,0,.34-.41,10.86,10.86,0,0,0-1.53-.75A10.69,10.69,0,0,0,3.8,9.87Z"/><path class="cls-7" d="M20.77,7.88a12.26,12.26,0,0,0,.16,2,2.3,2.3,0,0,1-.54,1.87,3.52,3.52,0,0,1-2.33.56,7.9,7.9,0,0,0-2.16.44,2.42,2.42,0,0,0-1.74,1.56,2.32,2.32,0,0,0,1.14,2.14,2.33,2.33,0,0,0,1.48.54c1-.08,1.72-1.19,2.74-1.27.81-.07,1.5.55,2.23.91a4,4,0,0,0,2.18.35A10.7,10.7,0,0,0,21.4,6.3,2.92,2.92,0,0,0,20.77,7.88Z"/><path class="cls-8" d="M23.24,8.83a10,10,0,0,1-.64,2.52A10.68,10.68,0,0,1,3.22,12.47a10.68,10.68,0,1,0,20-3.64Z"/><path class="cls-9" d="M24,13a9.63,9.63,0,0,1-.67,3.25A9.93,9.93,0,0,1,4.23,13.67a9.93,9.93,0,0,0,19.18,4A9.75,9.75,0,0,0,24,13Z"/><path class="cls-10" d="M4.08,11a10.67,10.67,0,0,1,20.17.81,10.68,10.68,0,1,0-20.72,5A10.63,10.63,0,0,1,4.08,11Z"/><path class="cls-11" d="M4.49,12.45a9.59,9.59,0,0,1,1.9-3.67A10.12,10.12,0,0,1,11.8,5,9.32,9.32,0,0,1,22.44,9.83c.78,2-1.43,3-3.86,2s-4.82-2-6.71-1.27-3,3.88-5.11,3.82a2.48,2.48,0,0,1-2.08-.83A1.63,1.63,0,0,1,4.49,12.45Z"/><path class="cls-12" d="M11.88,6.55c.36.68-.34,1.74-1.55,2.37s-2.49.58-2.84-.1S7.83,7.07,9,6.44,11.53,5.86,11.88,6.55Z"/><path class="cls-13" d="M15.47,5.81c0,.45-.55.89-1.35,1s-1.49-.2-1.54-.65.55-.89,1.35-1S15.42,5.36,15.47,5.81Z"/></g></g></g></svg>